<?xml version="1.0" encoding="UTF-8"?><svg id="b" xmlns="http://www.w3.org/2000/svg" viewBox="0 0 310.98 48.11"><defs><style>.d{fill:#fff;font-family:Roboto-Light, Roboto;font-size:32.57px;font-weight:300;}</style></defs><g id="c"><text class="d" transform="translate(14.91 39.43) rotate(-10.92)"><tspan x="0" y="0">c</tspan></text><text class="d" transform="translate(31.25 36.27) rotate(-9.49)"><tspan x="0" y="0">u</tspan></text><text class="d" transform="translate(48.77 33.38) rotate(-8.21)"><tspan x="0" y="0">r</tspan></text><text class="d" transform="translate(58.84 31.87) rotate(-6.84)"><tspan x="0" y="0">a</tspan></text><text class="d" transform="translate(76.01 29.85) rotate(-5.2)"><tspan x="0" y="0">t</tspan></text><text class="d" transform="translate(85.92 28.87) rotate(-3.2)"><tspan x="0" y="0">o</tspan></text><text class="d" transform="translate(103.86 27.92) rotate(-.56)"><tspan x="0" y="0">r</tspan></text><text class="d" transform="translate(114.61 27.84) rotate(1.53)"><tspan x="0" y="0">i</tspan></text><text class="d" transform="translate(121.57 27.83) rotate(5.18)"><tspan x="0" y="0">a</tspan></text><text class="d" transform="translate(138.43 29.53) rotate(10.34)"><tspan x="0" y="0">l</tspan></text><text class="d" transform="translate(145.21 30.73) rotate(14.73)"><tspan x="0" y="0"> </tspan></text><text class="d" transform="translate(153.88 33.59) rotate(11.17)"><tspan x="0" y="0">s</tspan></text><text class="d" transform="translate(171.63 36.75) rotate(4.99)"><tspan x="0" y="0">t</tspan></text><text class="d" transform="translate(182.92 37.78) rotate(1.5)"><tspan x="0" y="0">a</tspan></text><text class="d" transform="translate(200.9 38.16) rotate(-.75)"><tspan x="0" y="0">t</tspan></text><text class="d" transform="translate(211.7 38.04) rotate(-2.28)"><tspan x="0" y="0">e</tspan></text><text class="d" transform="translate(228.34 37.44) rotate(-3.93)"><tspan x="0" y="0">m</tspan></text><text class="d" transform="translate(257.05 35.4) rotate(-4.81)"><tspan x="0" y="0">e</tspan></text><text class="d" transform="translate(273.78 33.97) rotate(-4.85)"><tspan x="0" y="0">n</tspan></text><text class="d" transform="translate(291.54 32.46) rotate(-3.93)"><tspan x="0" y="0">t</tspan></text></g></svg>