<?xml version="1.0" encoding="UTF-8"?><svg id="b" xmlns="http://www.w3.org/2000/svg" viewBox="0 0 311.17 66.41"><defs><style>.d{fill:#fff;font-family:Roboto-Light, Roboto;font-size:32.57px;font-weight:300;}</style></defs><g id="c"><text class="d" transform="translate(14.28 45.16) rotate(3.7)"><tspan x="0" y="0">n</tspan></text><text class="d" transform="translate(32.03 46.31) rotate(2.6)"><tspan x="0" y="0">e</tspan></text><text class="d" transform="translate(48.7 47.12) rotate(1.18)"><tspan x="0" y="0">w</tspan></text><text class="d" transform="translate(73.11 47.54) rotate(-.11)"><tspan x="0" y="0"> </tspan></text><text class="d" transform="translate(81.06 47.7) rotate(-1.92)"><tspan x="0" y="0">m</tspan></text><text class="d" transform="translate(110.69 46.56) rotate(-5.1)"><tspan x="0" y="0">e</tspan></text><text class="d" transform="translate(128.39 45.01) rotate(-8.86)"><tspan x="0" y="0">d</tspan></text><text class="d" transform="translate(147.3 41.86) rotate(-13.18)"><tspan x="0" y="0">i</tspan></text><text class="d" transform="translate(154.03 39.93) rotate(-9.59)"><tspan x="0" y="0">a</tspan></text><text class="d" transform="translate(170.87 37.28) rotate(-5.37)"><tspan x="0" y="0"> </tspan></text><text class="d" transform="translate(178.43 36.45) rotate(-2.36)"><tspan x="0" y="0">a</tspan></text><text class="d" transform="translate(195.62 35.82) rotate(.15)"><tspan x="0" y="0">r</tspan></text><text class="d" transform="translate(207.23 35.87) rotate(1.74)"><tspan x="0" y="0">t</tspan></text><text class="d" transform="translate(217.54 36.15) rotate(3.26)"><tspan x="0" y="0">s</tspan></text><text class="d" transform="translate(233.85 37.07) rotate(4.8)"><tspan x="0" y="0">p</tspan></text><text class="d" transform="translate(251.71 38.58) rotate(6.03)"><tspan x="0" y="0">a</tspan></text><text class="d" transform="translate(268.98 40.41) rotate(6.92)"><tspan x="0" y="0">c</tspan></text><text class="d" transform="translate(285.59 42.44) rotate(7.38)"><tspan x="0" y="0">e</tspan></text></g></svg>