<?xml version="1.0" encoding="UTF-8"?><svg id="b" xmlns="http://www.w3.org/2000/svg" viewBox="0 0 376.76 125.63"><defs><style>.d{opacity:.64;}.e{fill:#fff;stroke-width:0px;}</style></defs><g id="c"><g class="d"><path class="e" d="M30.58,39.6c-1.5-.4-2.99-.81-4.49-1.24-5.88-1.09-10.74-.04-14.57,2.86-3.83,2.92-6.24,7.43-7.24,13.94.53,15.49,1.05,30.66,1.58,45.16-1.15-.32-2.3-.64-3.45-.98C1.61,76.53.8,52.72,0,29.38c1.15.37,2.3.73,3.45,1.08.17,4.99.33,9.96.5,14.92,1.71-4.24,4.39-7.28,8.04-9.35,3.65-2.06,8.31-2.7,13.98-1.76,2,.33,3.63.86,4.88,1.63-.09,1.25-.18,2.48-.28,3.71Z"/><path class="e" d="M47.42,10.71c.02-1.41.37-2.61,1.07-3.6.69-.99,1.54-1.48,2.51-1.44.98.04,1.82.6,2.51,1.68.69,1.07,1.03,2.34,1.01,3.78-.02,1.44-.38,2.62-1.1,3.56-.72.94-1.56,1.36-2.54,1.29-.98-.07-1.81-.62-2.48-1.63-.67-1.02-1-2.22-.98-3.63ZM51.08,109.2c-1.15-.13-2.3-.27-3.45-.42.4-16.59.81-39.4,1.21-68.65,1.15.16,2.3.31,3.45.45-.4,29.46-.81,52.26-1.21,68.62Z"/><path class="e" d="M131.05,78.65c-.56,10.66-3.33,18.36-8.31,23.85-4.97,5.46-11.46,7.91-19.47,8.16-5.24.14-9.84-.53-13.82-2.04-3.98-1.52-7.02-3.73-9.12-6.75-.65,9.76-1.3,17.38-1.96,22.87-1.15-.03-2.3-.05-3.45-.08,1.67-14.18,3.34-42.29,5.02-84.49,1.15.08,2.3.15,3.45.22-.22,5.43-.43,10.63-.65,15.59,2.61-5.18,6.01-9.35,10.17-12.27,4.17-2.93,8.83-4.41,13.98-4.45,8.09-.08,14.3,3.71,18.61,10.68,4.32,6.94,6.18,16.43,5.59,27.63-.02.36-.04.72-.06,1.08ZM127.6,77.76c.52-9.94-1.04-18.39-4.69-24.62-3.64-6.25-9.03-9.58-16.14-9.45-5.79.08-10.79,1.97-14.99,5.65-4.21,3.66-7.35,8.86-9.43,15.2-.57,12.3-1.13,22.99-1.69,32.09,1.54,4.09,4.27,7,8.2,8.98,3.93,1.96,8.81,2.83,14.65,2.65,7.07-.25,12.71-2.54,16.92-7.43,4.21-4.92,6.6-12.25,7.17-23.05Z"/><path class="e" d="M203.12,59.58c.37,10.69-1.65,20.22-6.07,27.82-4.42,7.64-10.64,12.06-18.65,13.62-5.24,1.03-9.94.93-14.11-.15-4.16-1.09-7.46-2.99-9.9-5.81.43,11.05.87,21.17,1.3,30.48-1.15.03-2.3.06-3.45.09-1.11-23.07-2.23-52.14-3.34-88.92,1.15-.23,2.3-.46,3.45-.69.14,4.69.29,9.26.43,13.71,2.23-5.32,5.33-9.79,9.3-13.23,3.97-3.45,8.53-5.64,13.69-6.7,8.1-1.65,14.57.2,19.44,5.08,4.86,4.91,7.49,12.52,7.88,23.62.01.36.03.72.04,1.08ZM199.56,59.23c-.35-9.83-2.59-16.75-6.73-21.26-4.14-4.49-9.76-6.12-16.88-4.57-5.8,1.27-10.67,3.95-14.61,8.14-3.94,4.18-6.71,9.6-8.31,15.96.38,11.33.75,21.88,1.13,31.73,1.96,3.93,5.02,6.55,9.18,8.04,4.16,1.48,9.16,1.68,15,.44,7.07-1.49,12.47-5.45,16.2-12.14,3.73-6.66,5.4-15.64,5.02-26.35Z"/><path class="e" d="M232.37,90.52c-1.14.31-2.29.62-3.44.93-3.42-37.71-6.85-66.23-10.27-91.17,1.15-.1,2.29-.19,3.44-.28,3.42,24.09,6.85,52.44,10.27,90.52Z"/><path class="e" d="M281.89,87.85c-5.56-.53-10.5-2.91-14.83-6.87-4.33-3.96-7.54-8.98-9.62-14.9-2.08-5.91-2.79-12.13-2.12-18.57.1-.97.2-1.92.3-2.87.67-6.29,2.56-11.69,5.66-16.29,3.1-4.6,7.04-7.84,11.8-10.01,4.77-2.16,9.78-3.04,15.04-2.81,7.68.37,13.66,2.66,17.97,7.43,4.3,4.81,5.99,11.24,5.05,19.87-.13,1.18-.25,2.37-.38,3.58-17.2-2.98-34.39-3.6-51.59-2.88-.13,1.23-.26,2.47-.39,3.74-.58,5.66.04,11.2,1.9,16.57,1.85,5.38,4.7,9.9,8.56,13.43,3.85,3.53,8.19,5.61,13.03,6.04,4.62.42,8.64-.14,12.04-1.72,3.4-1.58,6.53-4.23,9.37-7.79.75.83,1.49,1.67,2.24,2.52-5.91,8.49-13.91,12.56-24.01,11.51ZM287.76,17.95c-6.7-.27-12.65,1.37-17.83,5.34-5.19,4-8.59,9.51-10.21,16.92,15.99-.66,31.98-.19,47.97,2.26.03-.27.06-.54.09-.8.49-4.5-.04-8.54-1.59-12.18-1.55-3.64-3.94-6.36-7.16-8.34-3.22-1.97-6.98-3-11.26-3.2Z"/><path class="e" d="M373.28,78.53c-.44-8.55-7.89-17.95-22.36-24.81-8.7-4.05-14.81-7.29-18.32-10.57-3.51-3.26-5.41-7.16-5.67-11.56-.27-4.43,1.66-7.58,5.76-9.71,4.11-2.1,9.59-2.73,16.45-1.64,7.45,1.2,13.53,3.97,18.23,8.6,4.7,4.62,7.21,10.37,7.53,16.51-1.17-.47-2.34-.92-3.51-1.36-.24-4.64-2.41-9.22-6.49-13.25-4.08-4.03-9.27-6.52-15.57-7.64-6.05-1.07-10.77-.63-14.16,1.05-3.4,1.71-4.99,4.23-4.78,7.71.16,2.73.95,5.06,2.36,6.9,1.41,1.84,3.65,3.68,6.7,5.61,3.05,1.94,7.47,4.15,13.25,7.01,5.78,2.87,10.37,6,13.79,9.05,3.42,3.06,5.93,6.24,7.55,9.39,1.62,3.15,2.52,6.54,2.71,10.16.28,5.59-1.72,9.1-6.02,11.33-4.3,2.22-10.07,2.86-17.31,1.75-7.75-1.16-14.09-3.87-19.02-8.67-4.93-4.76-7.54-10.52-7.83-16.96,1.15.09,2.3.19,3.45.31.6,5.65,2.93,10.45,7.01,14.16,4.08,3.73,9.48,5.95,16.21,7.1,6.17,1.07,11.11.58,14.82-1.38,3.7-1.96,5.45-4.81,5.23-9.06Z"/></g></g></svg>